<svg xmlns="http://www.w3.org/2000/svg" viewBox="0 0 295.03 152.17"><g id="Lager_2" data-name="Lager 2"><g id="Lager_1-2" data-name="Lager 1"><path d="M110.81,69h15.52V51.64H110.81Zm2.6-14.7h10.32V66.34H113.41Z"/><path d="M158.9,51.64H143.37V69H158.9Zm-2.6,14.7H146V54.25H156.3Z"/><path d="M110.81,97.67h15.52V80.37H110.81Zm2.6-14.7h10.32v12.1H113.41Z"/><path d="M158.9,80.37H143.37v17.3H158.9Zm-2.6,14.7H146V83H156.3Z"/><path d="M110.81,126.4h15.52V109.09H110.81Zm2.6-14.7h10.32v12.09H113.41Z"/><path d="M158.9,109.09H143.37V126.4H158.9Zm-2.6,14.7H146V111.7H156.3Z"/><rect x="75.93" y="131.91" width="2.6" height="5.58"/><rect x="81.8" y="131.91" width="2.6" height="5.58"/><rect x="87.68" y="131.91" width="2.6" height="5.58"/><rect x="93.55" y="131.91" width="2.6" height="5.58"/><rect x="75.93" y="102.33" width="2.6" height="5.58"/><rect x="81.8" y="102.33" width="2.6" height="5.58"/><rect x="87.68" y="102.33" width="2.6" height="5.58"/><rect x="93.55" y="102.33" width="2.6" height="5.58"/><rect x="75.93" y="73.08" width="2.6" height="5.58"/><rect x="81.8" y="73.08" width="2.6" height="5.58"/><rect x="87.68" y="73.08" width="2.6" height="5.58"/><rect x="93.55" y="73.08" width="2.6" height="5.58"/><path d="M241.6,51.64H226.08V69H241.6ZM239,66.34H228.68V54.25H239Z"/><path d="M209,51.64H193.51V69H209Zm-2.61,14.7H196.12V54.25h10.31Z"/><path d="M241.6,80.37H226.08v17.3H241.6ZM239,95.07H228.68V83H239Z"/><path d="M209,80.37H193.51v17.3H209Zm-2.61,14.7H196.12V83h10.31Z"/><path d="M241.6,109.09H226.08V126.4H241.6Zm-2.6,14.7H228.68V111.7H239Z"/><path d="M209,109.09H193.51V126.4H209Zm-2.61,14.7H196.12V111.7h10.31Z"/><path d="M283.4,149.57v-7.86H286v-2.6H283.4V112.36H286v-2.6H283.4V83H286V80.4H283.4V54.28H286v-2.6H283.4v-8h3.78V8.51H136.88V2.6h1.3V0H123.54V2.6h1.23V8.51H65.23v35.2H69v8H66.38v2.6H69V80.4H66.38V83H69v26.75H66.38v2.6H69v26.75H66.38v2.6H69v7.86H42.35v-9.44a11.39,11.39,0,1,0-3,0v9.4H18.69V121.19a16.91,16.91,0,1,0-3,0v28.33H6.38v2.6H295v-2.6ZM32.31,128.85a8.4,8.4,0,1,1,8.4,8.41A8.41,8.41,0,0,1,32.31,128.85ZM3,104.44A13.86,13.86,0,1,1,16.85,118.3,13.86,13.86,0,0,1,3,104.44ZM284.58,34.59H216.26V30.67h68.32Zm0-6.52H216.26V24.15h68.32Zm-147.7-17h147.7V15H136.88Zm-9.51-8.3h6.91V15h-6.91Zm-59.53,8.3h56.93V15H67.84Zm0,6.52H284.58v3.92H67.84Zm145.82,6.71v12.1H203.34V24.34Zm-29.53,3.73V24.15h16.6v3.92Zm16.6,2.6v4h-16.6v-4Zm-19.2-6.33v12.1H171.21V24.34Zm-32.46,0v12.1H138.76V24.34Zm-81.23-.19h68.31v3.92H67.84Zm0,6.52h68.31v3.92H67.84Zm0,10.44V37.19h68.31V39h15.53V24.15h16.93v3.92H151.68v2.6h16.93v4H151.68v2.61h16.93V39h15.52V37.26h16.6V39h15.53V37.19h68.32v3.92H67.84Zm33,108.46H71.61v-7.86h29.2ZM71.74,139v-9H100.4v9Zm29.07-11.59H71.61V112.36h29.2Zm-29.07-17.8v-9H100.4v9ZM100.81,98H71.61V83h29.2ZM71.74,80.21v-9H100.4v9Zm29.07-11.59H71.61V54.28h29.2Zm0-16.94H71.61v-8h29.2ZM175,149.57H103.41v-7.86h0v-2.6h0V112.36h0v-2.6h0V83h0V80.4h0V54.28h0v-2.6h0v-8H175Zm74-97.89h0v2.6h0V80.4h0V83h0v26.75h0v2.6h0v26.75h0v2.6h0v7.86H177.56V43.71H249Zm31.8,97.89H251.6v-7.86h29.2ZM252,139v-9h28.66v9Zm28.79-11.59H251.6V112.36h29.2ZM252,109.63v-9h28.66v9ZM280.8,98H251.6V83h29.2ZM252,80.21v-9h28.66v9ZM280.8,68.62H251.6V54.28h29.2Zm0-16.94H251.6v-8h29.2Z"/><rect x="273.88" y="131.91" width="2.6" height="5.58"/><rect x="268" y="131.91" width="2.6" height="5.58"/><rect x="262.13" y="131.91" width="2.6" height="5.58"/><rect x="256.25" y="131.91" width="2.6" height="5.58"/><rect x="273.88" y="102.33" width="2.6" height="5.58"/><rect x="268" y="102.33" width="2.6" height="5.58"/><rect x="262.13" y="102.33" width="2.6" height="5.58"/><rect x="256.25" y="102.33" width="2.6" height="5.58"/><rect x="273.88" y="73.08" width="2.6" height="5.58"/><rect x="268" y="73.08" width="2.6" height="5.58"/><rect x="262.13" y="73.08" width="2.6" height="5.58"/><rect x="256.25" y="73.08" width="2.6" height="5.58"/></g></g></svg>