<?xml version="1.0" encoding="utf-8"?>
<!-- Generator: Adobe Illustrator 25.3.1, SVG Export Plug-In . SVG Version: 6.00 Build 0)  -->
<svg version="1.1" id="Layer_1" xmlns="http://www.w3.org/2000/svg" xmlns:xlink="http://www.w3.org/1999/xlink" x="0px" y="0px"
	 viewBox="0 0 295 152.2" style="enable-background:new 0 0 295 152.2;" xml:space="preserve">
<style type="text/css">
	.st0{fill:#EEEEEE;}
</style>
<g id="Lager_2">
	<g id="Lager_1-2">
		<path class="st0" d="M110.8,69h15.5V51.6h-15.5V69z M113.4,54.3h10.3v12h-10.3L113.4,54.3z"/>
		<path class="st0" d="M158.9,51.6h-15.5V69h15.5V51.6z M156.3,66.3H146V54.2h10.3L156.3,66.3z"/>
		<path class="st0" d="M110.8,97.7h15.5V80.4h-15.5V97.7z M113.4,83h10.3v12.1h-10.3L113.4,83z"/>
		<path class="st0" d="M158.9,80.4h-15.5v17.3h15.5V80.4z M156.3,95.1H146V83h10.3L156.3,95.1z"/>
		<path class="st0" d="M110.8,126.4h15.5v-17.3h-15.5V126.4z M113.4,111.7h10.3v12.1h-10.3L113.4,111.7z"/>
		<path class="st0" d="M158.9,109.1h-15.5v17.3h15.5V109.1z M156.3,123.8H146v-12.1h10.3L156.3,123.8z"/>
		<rect x="75.9" y="131.9" class="st0" width="2.6" height="5.6"/>
		<rect x="81.8" y="131.9" class="st0" width="2.6" height="5.6"/>
		<rect x="87.7" y="131.9" class="st0" width="2.6" height="5.6"/>
		<rect x="93.6" y="131.9" class="st0" width="2.6" height="5.6"/>
		<rect x="75.9" y="102.3" class="st0" width="2.6" height="5.6"/>
		<rect x="81.8" y="102.3" class="st0" width="2.6" height="5.6"/>
		<rect x="87.7" y="102.3" class="st0" width="2.6" height="5.6"/>
		<rect x="93.6" y="102.3" class="st0" width="2.6" height="5.6"/>
		<rect x="75.9" y="73.1" class="st0" width="2.6" height="5.6"/>
		<rect x="81.8" y="73.1" class="st0" width="2.6" height="5.6"/>
		<rect x="87.7" y="73.1" class="st0" width="2.6" height="5.6"/>
		<rect x="93.6" y="73.1" class="st0" width="2.6" height="5.6"/>
		<path class="st0" d="M241.6,51.6h-15.5V69h15.5V51.6z M239,66.3h-10.3V54.2H239V66.3z"/>
		<path class="st0" d="M209,51.6h-15.5V69H209V51.6z M206.4,66.3h-10.3V54.2h10.3L206.4,66.3z"/>
		<path class="st0" d="M241.6,80.4h-15.5v17.3h15.5V80.4z M239,95.1h-10.3V83H239V95.1z"/>
		<path class="st0" d="M209,80.4h-15.5v17.3H209V80.4z M206.4,95.1h-10.3V83h10.3L206.4,95.1z"/>
		<path class="st0" d="M241.6,109.1h-15.5v17.3h15.5V109.1z M239,123.8h-10.3v-12.1H239V123.8z"/>
		<path class="st0" d="M209,109.1h-15.5v17.3H209V109.1z M206.4,123.8h-10.3v-12.1h10.3L206.4,123.8z"/>
		<path class="st0" d="M283.4,149.6v-7.9h2.6v-2.6h-2.6v-26.8h2.6v-2.6h-2.6V83h2.6v-2.6h-2.6V54.3h2.6v-2.6h-2.6v-8h3.8V8.5H136.9
			V2.6h1.3V0h-14.6v2.6h1.2v5.9H65.2v35.2H69v8h-2.6v2.6H69v26.1h-2.6V83H69v26.8h-2.6v2.6H69v26.8h-2.6v2.6H69v7.9H42.3v-9.4
			c6.2-0.8,10.6-6.6,9.8-12.8c-0.8-6.2-6.6-10.6-12.8-9.8c-6.2,0.8-10.6,6.6-9.8,12.8c0.7,5.1,4.7,9.1,9.8,9.8v9.4H18.7v-28.3
			c9.3-0.8,16.2-9,15.3-18.3s-9-16.2-18.3-15.3c-9.3,0.8-16.2,9-15.3,18.3c0.7,8.2,7.2,14.6,15.3,15.3v28.3H6.4v2.6H295v-2.6
			L283.4,149.6z M32.3,128.9c0-4.6,3.8-8.4,8.4-8.4c4.6,0,8.4,3.8,8.4,8.4c0,4.6-3.8,8.4-8.4,8.4C36.1,137.3,32.3,133.5,32.3,128.9z
			 M3,104.4c0-7.7,6.2-13.9,13.9-13.9c7.7,0,13.9,6.2,13.9,13.9s-6.2,13.9-13.9,13.9c0,0,0,0,0,0C9.2,118.3,3,112.1,3,104.4z
			 M284.6,34.6h-68.3v-3.9h68.3V34.6z M284.6,28.1h-68.3v-3.9h68.3V28.1z M136.9,11.1h147.7V15H136.9L136.9,11.1z M127.4,2.8h6.9V15
			h-6.9L127.4,2.8z M67.8,11.1h56.9V15H67.8L67.8,11.1z M67.8,17.6h216.7v3.9H67.8L67.8,17.6z M213.7,24.3v12.1h-10.3V24.3
			L213.7,24.3z M184.1,28v-3.9h16.6v3.9L184.1,28z M200.7,30.6v4h-16.6v-4L200.7,30.6z M181.5,24.3v12.1h-10.3V24.3L181.5,24.3z
			 M149.1,24.3v12.1h-10.3V24.3L149.1,24.3z M67.8,24.1h68.3V28H67.8L67.8,24.1z M67.8,30.6h68.3v3.9H67.8L67.8,30.6z M67.8,41.1
			v-3.9h68.3V39h15.5V24.1h16.9v3.9h-16.9v2.6h16.9v4h-16.9v2.6h16.9V39h15.5v-1.7h16.6V39h15.5v-1.8h68.3v3.9L67.8,41.1L67.8,41.1z
			 M100.8,149.5H71.6v-7.9h29.2L100.8,149.5z M71.7,139v-9h28.7v9H71.7z M100.8,127.4H71.6v-15.1h29.2V127.4z M71.7,109.6v-9h28.7v9
			H71.7z M100.8,98H71.6V83h29.2V98z M71.7,80.2v-9h28.7v9H71.7z M100.8,68.6H71.6V54.3h29.2V68.6z M100.8,51.7H71.6v-8h29.2V51.7z
			 M175,149.6h-71.6v-7.9l0,0v-2.6l0,0v-26.8l0,0v-2.6l0,0V83l0,0v-2.6l0,0V54.3l0,0v-2.6l0,0v-8H175V149.6z M249,51.7L249,51.7v2.6
			l0,0v26.1l0,0V83l0,0v26.8l0,0v2.6l0,0v26.8l0,0v2.6l0,0v7.9h-71.4V43.7H249V51.7z M280.8,149.6h-29.2v-7.9h29.2L280.8,149.6z
			 M252,139v-9h28.7v9H252z M280.8,127.4h-29.2v-15.1h29.2L280.8,127.4z M252,109.6v-9h28.7v9H252z M280.8,98h-29.2V83h29.2
			L280.8,98z M252,80.2v-9h28.7v9H252z M280.8,68.6h-29.2V54.3h29.2L280.8,68.6z M280.8,51.7h-29.2v-8h29.2L280.8,51.7z"/>
		<rect x="273.9" y="131.9" class="st0" width="2.6" height="5.6"/>
		<rect x="268" y="131.9" class="st0" width="2.6" height="5.6"/>
		<rect x="262.1" y="131.9" class="st0" width="2.6" height="5.6"/>
		<rect x="256.2" y="131.9" class="st0" width="2.6" height="5.6"/>
		<rect x="273.9" y="102.3" class="st0" width="2.6" height="5.6"/>
		<rect x="268" y="102.3" class="st0" width="2.6" height="5.6"/>
		<rect x="262.1" y="102.3" class="st0" width="2.6" height="5.6"/>
		<rect x="256.2" y="102.3" class="st0" width="2.6" height="5.6"/>
		<rect x="273.9" y="73.1" class="st0" width="2.6" height="5.6"/>
		<rect x="268" y="73.1" class="st0" width="2.6" height="5.6"/>
		<rect x="262.1" y="73.1" class="st0" width="2.6" height="5.6"/>
		<rect x="256.2" y="73.1" class="st0" width="2.6" height="5.6"/>
	</g>
</g>
</svg>
