<?xml version="1.0" encoding="utf-8"?>
<!-- Generator: Adobe Illustrator 15.1.0, SVG Export Plug-In . SVG Version: 6.00 Build 0)  -->
<!DOCTYPE svg PUBLIC "-//W3C//DTD SVG 1.1//EN" "http://www.w3.org/Graphics/SVG/1.1/DTD/svg11.dtd">
<svg version="1.1" id="Layer_1" xmlns="http://www.w3.org/2000/svg" xmlns:xlink="http://www.w3.org/1999/xlink" x="0px" y="0px"
	 width="420px" height="90px" viewBox="0 0 420 90" enable-background="new 0 0 420 90" xml:space="preserve">
<g>
	<g>
		<path fill="#0B0904" d="M117.789,25.726v40.938h-3.265V25.726H99.204v-3.014h33.904v3.014H117.789z"/>
		<path fill="#0B0904" d="M143.467,66.663V22.712h3.265v43.951H143.467z"/>
		<path fill="#0B0904" d="M198.404,66.663V28.487l-17.392,25.305h-0.251L163.37,28.487v38.176h-3.14V22.712h3.076l17.643,25.992
			l17.643-25.992h3.077v43.951H198.404z"/>
		<path fill="#0B0904" d="M234.82,67.415c-13.311,0-22.039-10.611-22.039-22.602v-0.125c0-11.994,8.854-22.729,22.164-22.729
			s22.037,10.609,22.037,22.6c0.061,0.064,0.061,0.064,0,0.129C256.982,56.679,248.128,67.415,234.82,67.415z M253.591,44.688
			c0-10.863-7.912-19.779-18.771-19.779c-10.863,0-18.646,8.791-18.646,19.65v0.129c0,10.859,7.91,19.777,18.771,19.777
			s18.646-8.791,18.646-19.652V44.688z"/>
		<path fill="#0B0904" d="M280.076,25.726v40.938h-3.266V25.726h-15.318v-3.014h33.904v3.014H280.076z"/>
		<path fill="#0B0904" d="M322.644,67.353c-10.549,0-18.02-6.656-18.02-18.961v-25.68h3.264v25.365
			c0,10.359,5.588,16.322,14.881,16.322c8.916,0,14.629-5.398,14.629-16.008v-25.68h3.264v25.303
			C340.662,60.634,333.316,67.353,322.644,67.353z"/>
		<path fill="#0B0904" d="M350.771,66.663v-1.822l30.072-39.178h-29.006v-2.951h33.654v1.82L355.417,63.71h30.074v2.953H350.771z"/>
	</g>
	<g>
		<g>
			<rect x="74.109" y="38.548" fill="#E12228" width="11" height="28"/>
			<rect x="35.109" y="38.548" fill="#E12228" width="11" height="28"/>
		</g>
		<polygon fill="#E12228" points="35.109,22.548 35.109,32.548 53.109,32.548 53.109,66.548 67.109,66.548 67.109,32.548 
			85.109,32.548 85.109,22.548 		"/>
	</g>
</g>
</svg>
