<?xml version="1.0" encoding="utf-8"?>
<!-- Generator: Adobe Illustrator 15.1.0, SVG Export Plug-In . SVG Version: 6.00 Build 0)  -->
<!DOCTYPE svg PUBLIC "-//W3C//DTD SVG 1.1//EN" "http://www.w3.org/Graphics/SVG/1.1/DTD/svg11.dtd">
<svg version="1.1" id="Layer_1" xmlns="http://www.w3.org/2000/svg" xmlns:xlink="http://www.w3.org/1999/xlink" x="0px" y="0px"
	 width="100px" height="100px" viewBox="0 0 100 100" enable-background="new 0 0 100 100" xml:space="preserve">
<g>
	<g>
		<polygon fill="#fafafa" points="83.273,41.441 74.465,41.441 69.97,41.441 69.97,81.38 83.273,81.38 85.659,81.38 85.659,41.441 
					"/>
		<polygon fill="#fafafa" points="18.648,41.441 14.34,41.441 14.34,81.38 27.463,81.38 30.03,81.38 30.03,41.441 27.463,41.441 		
			"/>
	</g>
	<polygon fill="#fafafa" points="59.778,18.62 42.155,18.62 14.34,18.62 14.34,20.411 14.34,32.882 40.018,32.882 40.018,81.38 
		55.935,81.38 59.982,81.38 59.982,32.882 85.659,32.882 85.659,29.226 85.659,20.411 85.659,18.62 	"/>
</g>
</svg>
