<?xml version="1.0" encoding="utf-8"?>
<!-- Generator: Adobe Illustrator 25.3.1, SVG Export Plug-In . SVG Version: 6.00 Build 0)  -->
<svg version="1.1" id="Layer_1" xmlns="http://www.w3.org/2000/svg" xmlns:xlink="http://www.w3.org/1999/xlink" x="0px" y="0px"
	 viewBox="0 0 388 121" style="enable-background:new 0 0 388 121;" xml:space="preserve">
<style type="text/css">
	.st0{fill:#fff;}
	.st1{fill:#E1252A;}
	.st2{enable-background:new    ;}
	.st3{fill:#fff;}
</style>
<g>
	<path class="st0" d="M139.4,30.7v32.6h-2.6V30.7h-12.2v-2.4h27v2.4H139.4z"/>
	<path class="st0" d="M159.9,63.3v-35h2.6v35H159.9z"/>
	<path class="st0" d="M203.7,63.3V32.9l-13.9,20.2h-0.2l-13.9-20.2v30.4h-2.5v-35h2.5L189.8,49l14.1-20.7h2.5v35H203.7z"/>
	<path class="st0" d="M232.7,63.9c-10.6,0-17.6-8.5-17.6-18v-0.1c0-9.6,7.1-18.1,17.7-18.1s17.6,8.5,17.6,18c0,0.1,0,0.1,0,0.1
		C250.4,55.4,243.3,63.9,232.7,63.9z M247.7,45.8c0-8.7-6.3-15.8-15-15.8c-8.7,0-14.9,7-14.9,15.7v0.1c0,8.7,6.3,15.8,15,15.8
		C241.5,61.6,247.7,54.6,247.7,45.8L247.7,45.8z"/>
	<path class="st0" d="M268.8,30.7v32.6h-2.6V30.7H254v-2.4h27v2.4H268.8z"/>
	<path class="st0" d="M302.7,63.9c-8.4,0-14.4-5.3-14.4-15.1V28.3h2.6v20.2c0,8.3,4.5,13,11.9,13c7.1,0,11.7-4.3,11.7-12.8V28.3h2.6
		v20.2C317.1,58.5,311.2,63.9,302.7,63.9z"/>
	<path class="st0" d="M325.1,63.3v-1.5l24-31.2H326v-2.4h26.8v1.5l-24,31.2h24v2.4H325.1z"/>
</g>
<g>
	<g>
		<rect x="87.4" y="52.7" class="st1" width="16.8" height="42.7"/>
		<rect x="27.9" y="52.7" class="st1" width="16.8" height="42.7"/>
	</g>
	<polygon class="st1" points="27.9,28.3 27.9,43.6 55.4,43.6 55.4,95.4 76.7,95.4 76.7,43.6 104.1,43.6 104.1,28.3 	"/>
</g>
<g class="st2">
	<path class="st3" d="M145.1,80c-0.1,0.1-0.1,0.1-0.2,0.1h-7.5c-0.1,0-0.1,0-0.1,0.1v4.6c0,0.1,0,0.1,0.1,0.1h5.1
		c0.1,0,0.2,0,0.2,0.1c0.1,0.1,0.1,0.1,0.1,0.2v1.1c0,0.1,0,0.2-0.1,0.2c-0.1,0.1-0.1,0.1-0.2,0.1h-5.1c-0.1,0-0.1,0-0.1,0.1V93
		c0,0.1,0,0.2-0.1,0.2c-0.1,0.1-0.1,0.1-0.2,0.1h-1.4c-0.1,0-0.2,0-0.2-0.1c-0.1-0.1-0.1-0.1-0.1-0.2V78.6c0-0.1,0-0.2,0.1-0.2
		c0.1-0.1,0.1-0.1,0.2-0.1h9.3c0.1,0,0.2,0,0.2,0.1c0.1,0.1,0.1,0.1,0.1,0.2v1.1C145.2,79.8,145.2,79.9,145.1,80z"/>
	<path class="st3" d="M163.7,93.1l-0.8-2.4c0-0.1-0.1-0.1-0.1-0.1h-6c0,0-0.1,0-0.1,0.1l-0.8,2.4c-0.1,0.2-0.2,0.3-0.4,0.3h-1.5
		c-0.2,0-0.3-0.1-0.3-0.4l4.6-14.4c0.1-0.2,0.2-0.3,0.4-0.3h2c0.2,0,0.3,0.1,0.4,0.3l4.7,14.4c0,0,0,0.1,0,0.1
		c0,0.2-0.1,0.2-0.3,0.2h-1.5C163.9,93.3,163.7,93.3,163.7,93.1z M157.4,89h4.9c0.1,0,0.1,0,0.1-0.1l-2.5-8c0-0.1,0-0.1-0.1-0.1
		c0,0-0.1,0-0.1,0.1l-2.5,8C157.3,88.9,157.3,89,157.4,89z"/>
	<path class="st3" d="M178.1,93c-0.8-0.3-1.4-0.8-1.9-1.5c-0.4-0.6-0.7-1.4-0.7-2.2v-0.5c0-0.1,0-0.2,0.1-0.2
		c0.1-0.1,0.1-0.1,0.2-0.1h1.4c0.1,0,0.2,0,0.2,0.1c0.1,0.1,0.1,0.1,0.1,0.2v0.4c0,0.7,0.3,1.3,0.9,1.8c0.6,0.5,1.5,0.7,2.5,0.7
		c1,0,1.7-0.2,2.2-0.6c0.5-0.4,0.8-1,0.8-1.6c0-0.4-0.1-0.8-0.4-1.1c-0.3-0.3-0.6-0.6-1.1-0.9c-0.5-0.3-1.2-0.6-2.2-1
		c-1-0.4-1.9-0.8-2.5-1.1c-0.6-0.3-1.1-0.8-1.5-1.3c-0.4-0.5-0.6-1.2-0.6-2c0-1.2,0.4-2.2,1.3-2.9c0.9-0.7,2.1-1.1,3.6-1.1
		c1.1,0,2,0.2,2.8,0.5c0.8,0.4,1.4,0.9,1.9,1.5c0.4,0.6,0.7,1.4,0.7,2.2v0.3c0,0.1,0,0.2-0.1,0.2c-0.1,0.1-0.1,0.1-0.2,0.1h-1.4
		c-0.1,0-0.2,0-0.2-0.1c-0.1-0.1-0.1-0.1-0.1-0.2v-0.3c0-0.7-0.3-1.4-0.9-1.9c-0.6-0.5-1.4-0.7-2.5-0.7c-0.9,0-1.6,0.2-2.1,0.5
		s-0.7,0.9-0.7,1.6c0,0.5,0.1,0.9,0.4,1.2s0.6,0.6,1.1,0.8c0.5,0.2,1.2,0.5,2.2,0.9c1,0.4,1.8,0.8,2.5,1.1c0.6,0.3,1.2,0.8,1.6,1.3
		c0.4,0.6,0.6,1.2,0.6,2.1c0,0.8-0.2,1.5-0.6,2.2c-0.4,0.6-1,1.1-1.8,1.4c-0.8,0.3-1.7,0.5-2.8,0.5C179.9,93.5,178.9,93.3,178.1,93z
		"/>
	<path class="st3" d="M207,78.4c0.1,0.1,0.1,0.1,0.1,0.2v1.2c0,0.1,0,0.2-0.1,0.2c-0.1,0.1-0.1,0.1-0.2,0.1h-4c-0.1,0-0.1,0-0.1,0.1
		V93c0,0.1,0,0.2-0.1,0.2c-0.1,0.1-0.1,0.1-0.2,0.1H201c-0.1,0-0.2,0-0.2-0.1c-0.1-0.1-0.1-0.1-0.1-0.2V80.2c0-0.1,0-0.1-0.1-0.1
		h-3.8c-0.1,0-0.2,0-0.2-0.1c-0.1-0.1-0.1-0.1-0.1-0.2v-1.2c0-0.1,0-0.2,0.1-0.2c0.1-0.1,0.1-0.1,0.2-0.1h10.1
		C206.9,78.3,207,78.3,207,78.4z"/>
	<path class="st3" d="M218.5,93.3c-0.1-0.1-0.1-0.1-0.1-0.2V78.6c0-0.1,0-0.2,0.1-0.2c0.1-0.1,0.1-0.1,0.2-0.1h1.4
		c0.1,0,0.2,0,0.2,0.1c0.1,0.1,0.1,0.1,0.1,0.2V93c0,0.1,0,0.2-0.1,0.2c-0.1,0.1-0.1,0.1-0.2,0.1h-1.4
		C218.7,93.3,218.6,93.3,218.5,93.3z"/>
	<path class="st3" d="M234.9,92.9c-0.8-0.4-1.4-1-1.9-1.7c-0.4-0.8-0.7-1.6-0.7-2.6v-5.5c0-1,0.2-1.9,0.7-2.6
		c0.4-0.7,1.1-1.3,1.9-1.7c0.8-0.4,1.7-0.6,2.7-0.6c1,0,1.9,0.2,2.7,0.6c0.8,0.4,1.4,1,1.8,1.7c0.4,0.7,0.7,1.5,0.7,2.4v0.1
		c0,0.1,0,0.2-0.1,0.2c-0.1,0.1-0.1,0.1-0.2,0.1h-1.4c-0.1,0-0.2,0-0.2-0.1c-0.1,0-0.1-0.1-0.1-0.2v-0.2c0-0.9-0.3-1.6-0.9-2.1
		c-0.6-0.5-1.3-0.8-2.3-0.8c-1,0-1.7,0.3-2.3,0.8c-0.6,0.6-0.9,1.3-0.9,2.2v5.6c0,0.9,0.3,1.7,0.9,2.2c0.6,0.6,1.4,0.8,2.4,0.8
		c0.9,0,1.7-0.2,2.2-0.7c0.6-0.5,0.8-1.2,0.8-2v-1.6c0-0.1,0-0.1-0.1-0.1h-2.8c-0.1,0-0.2,0-0.2-0.1c-0.1-0.1-0.1-0.1-0.1-0.2v-1.1
		c0-0.1,0-0.2,0.1-0.2c0.1-0.1,0.1-0.1,0.2-0.1h4.6c0.1,0,0.2,0,0.2,0.1c0.1,0.1,0.1,0.1,0.1,0.2v2.6c0,1.7-0.5,2.9-1.4,3.8
		c-0.9,0.9-2.2,1.3-3.8,1.3C236.6,93.5,235.7,93.3,234.9,92.9z"/>
	<path class="st3" d="M263.1,78.4c0.1-0.1,0.1-0.1,0.2-0.1h1.4c0.1,0,0.2,0,0.2,0.1c0.1,0.1,0.1,0.1,0.1,0.2V93c0,0.1,0,0.2-0.1,0.2
		c-0.1,0.1-0.1,0.1-0.2,0.1h-1.4c-0.1,0-0.2,0-0.2-0.1c-0.1-0.1-0.1-0.1-0.1-0.2v-6.3c0-0.1,0-0.1-0.1-0.1h-6.1
		c-0.1,0-0.1,0-0.1,0.1V93c0,0.1,0,0.2-0.1,0.2c-0.1,0.1-0.1,0.1-0.2,0.1h-1.4c-0.1,0-0.2,0-0.2-0.1c-0.1-0.1-0.1-0.1-0.1-0.2V78.6
		c0-0.1,0-0.2,0.1-0.2c0.1-0.1,0.1-0.1,0.2-0.1h1.4c0.1,0,0.2,0,0.2,0.1c0.1,0.1,0.1,0.1,0.1,0.2v6.2c0,0.1,0,0.1,0.1,0.1h6.1
		c0.1,0,0.1,0,0.1-0.1v-6.2C263,78.5,263,78.4,263.1,78.4z"/>
	<path class="st3" d="M287.2,80c-0.1,0.1-0.1,0.1-0.2,0.1h-7.5c-0.1,0-0.1,0-0.1,0.1v4.6c0,0.1,0,0.1,0.1,0.1h5.1
		c0.1,0,0.2,0,0.2,0.1c0.1,0.1,0.1,0.1,0.1,0.2v1.1c0,0.1,0,0.2-0.1,0.2c-0.1,0.1-0.1,0.1-0.2,0.1h-5.1c-0.1,0-0.1,0-0.1,0.1v4.7
		c0,0.1,0,0.1,0.1,0.1h7.5c0.1,0,0.2,0,0.2,0.1c0.1,0.1,0.1,0.1,0.1,0.2V93c0,0.1,0,0.2-0.1,0.2c-0.1,0.1-0.1,0.1-0.2,0.1h-9.4
		c-0.1,0-0.2,0-0.2-0.1c-0.1-0.1-0.1-0.1-0.1-0.2V78.6c0-0.1,0-0.2,0.1-0.2c0.1-0.1,0.1-0.1,0.2-0.1h9.4c0.1,0,0.2,0,0.2,0.1
		c0.1,0.1,0.1,0.1,0.1,0.2v1.1C287.3,79.8,287.2,79.9,287.2,80z"/>
	<path class="st3" d="M308.6,78.4c0.1,0.1,0.1,0.1,0.1,0.2v1.2c0,0.1,0,0.2-0.1,0.2c-0.1,0.1-0.1,0.1-0.2,0.1h-4
		c-0.1,0-0.1,0-0.1,0.1V93c0,0.1,0,0.2-0.1,0.2c-0.1,0.1-0.1,0.1-0.2,0.1h-1.4c-0.1,0-0.2,0-0.2-0.1c-0.1-0.1-0.1-0.1-0.1-0.2V80.2
		c0-0.1,0-0.1-0.1-0.1h-3.8c-0.1,0-0.2,0-0.2-0.1c-0.1-0.1-0.1-0.1-0.1-0.2v-1.2c0-0.1,0-0.2,0.1-0.2c0.1-0.1,0.1-0.1,0.2-0.1h10.1
		C308.4,78.3,308.5,78.3,308.6,78.4z"/>
	<path class="st3" d="M329.9,80c-0.1,0.1-0.1,0.1-0.2,0.1h-7.5c-0.1,0-0.1,0-0.1,0.1v4.6c0,0.1,0,0.1,0.1,0.1h5.1
		c0.1,0,0.2,0,0.2,0.1c0.1,0.1,0.1,0.1,0.1,0.2v1.1c0,0.1,0,0.2-0.1,0.2c-0.1,0.1-0.1,0.1-0.2,0.1h-5.1c-0.1,0-0.1,0-0.1,0.1v4.7
		c0,0.1,0,0.1,0.1,0.1h7.5c0.1,0,0.2,0,0.2,0.1c0.1,0.1,0.1,0.1,0.1,0.2V93c0,0.1,0,0.2-0.1,0.2c-0.1,0.1-0.1,0.1-0.2,0.1h-9.4
		c-0.1,0-0.2,0-0.2-0.1c-0.1-0.1-0.1-0.1-0.1-0.2V78.6c0-0.1,0-0.2,0.1-0.2c0.1-0.1,0.1-0.1,0.2-0.1h9.4c0.1,0,0.2,0,0.2,0.1
		c0.1,0.1,0.1,0.1,0.1,0.2v1.1C330,79.8,330,79.9,329.9,80z"/>
	<path class="st3" d="M349.9,93.1l-3-6.4c0-0.1-0.1-0.1-0.1-0.1h-3c-0.1,0-0.1,0-0.1,0.1V93c0,0.1,0,0.2-0.1,0.2
		c-0.1,0.1-0.1,0.1-0.2,0.1h-1.4c-0.1,0-0.2,0-0.2-0.1c-0.1-0.1-0.1-0.1-0.1-0.2V78.6c0-0.1,0-0.2,0.1-0.2c0.1-0.1,0.1-0.1,0.2-0.1
		h5.7c0.9,0,1.6,0.2,2.3,0.5c0.7,0.4,1.2,0.9,1.5,1.5c0.4,0.6,0.5,1.4,0.5,2.2c0,1-0.3,1.8-0.8,2.5c-0.5,0.7-1.2,1.2-2.2,1.4
		c-0.1,0-0.1,0.1-0.1,0.1L352,93l0,0.2c0,0.1-0.1,0.2-0.3,0.2h-1.5C350.1,93.3,350,93.3,349.9,93.1z M343.7,80.2v4.8
		c0,0.1,0,0.1,0.1,0.1h3.6c0.7,0,1.4-0.2,1.8-0.7c0.5-0.5,0.7-1.1,0.7-1.8c0-0.8-0.2-1.4-0.7-1.8c-0.5-0.5-1.1-0.7-1.8-0.7h-3.6
		C343.7,80,343.7,80.1,343.7,80.2z"/>
</g>
</svg>
