<?xml version="1.0" encoding="utf-8"?>
<!-- Generator: Adobe Illustrator 25.3.1, SVG Export Plug-In . SVG Version: 6.00 Build 0)  -->
<svg version="1.1" id="Layer_1" xmlns="http://www.w3.org/2000/svg" xmlns:xlink="http://www.w3.org/1999/xlink" x="0px" y="0px"
	 viewBox="0 0 1024 768" style="enable-background:new 0 0 1024 768;" xml:space="preserve">
<style type="text/css">
	.st0{fill:url(#SVGID_1_);}
	.st1{fill:#C10C1C;}
	.st2{fill:#F54F61;}
	.st3{fill:#F71317;}
	.st4{opacity:0.6;}
	.st5{opacity:0.75;fill:#C10C1C;}
	.st6{opacity:0.6;fill:#C10C1C;}
</style>
<radialGradient id="SVGID_1_" cx="895.0218" cy="434.8873" r="803.1688" gradientUnits="userSpaceOnUse">
	<stop  offset="0.1145" style="stop-color:#FFFFFF"/>
	<stop  offset="0.1605" style="stop-color:#F8F8F8"/>
	<stop  offset="0.4485" style="stop-color:#CDCDCD"/>
	<stop  offset="0.5956" style="stop-color:#BDBDBD"/>
</radialGradient>
<polygon class="st0" points="893.8,433.4 478.4,471 310.3,556.8 447.5,531.4 447.5,556.8 563.8,542.2 563.8,556.8 805.6,531.3 "/>
<polygon class="st1" points="310.3,556.8 365.6,528.6 365.6,356.2 310.3,383.8 "/>
<polygon class="st1" points="447.5,556.8 502.8,528.6 502.8,310 447.5,337.6 "/>
<polygon class="st1" points="358.5,556.8 413.7,528.6 413.7,310 358.5,337.6 "/>
<polygon class="st1" points="562.4,337.8 617.7,309.6 617.7,251.2 562.4,278.8 "/>
<polygon class="st2" points="241.3,383.8 310.3,383.8 365.6,356.2 296.3,356.2 "/>
<rect x="241.3" y="383.8" class="st3" width="69" height="173"/>
<polygon class="st1" points="563.8,556.8 619,528.6 619,356.2 563.8,383.8 "/>
<polygon class="st2" points="494.8,383.8 563.8,383.8 619,356.2 549.7,356.2 "/>
<polygon class="st2" points="243.4,278.8 562.4,278.8 617.7,251.2 298.4,251.2 "/>
<rect x="494.8" y="383.8" class="st3" width="69" height="173"/>
<g class="st4">
	<polygon class="st5" points="261.1,373.9 330.1,373.9 365.6,356.2 296.5,356.2 	"/>
</g>
<polygon class="st6" points="514.5,373.9 583.6,373.9 619,356.2 550,356.2 "/>
<polygon class="st3" points="447.4,278.8 358.4,278.8 243.4,278.8 243.4,337.8 358.4,337.8 358.4,556.8 447.4,556.8 447.4,337.8 
	562.4,337.8 562.4,278.8 "/>
</svg>
